<svg xmlns="http://www.w3.org/2000/svg" width="1000" height="280" viewBox="0 0 1000 280" role="img" aria-labelledby="title desc">
  <title id="title">Purple GitHub contribution analytics</title>
  <desc id="desc">Total contributions 0, current streak 0, longest streak 0, commit contributions in last year 0</desc>
  <defs>
    <linearGradient id="bg" x1="0" y1="0" x2="1" y2="1"><stop offset="0" stop-color="#10081f"/><stop offset="1" stop-color="#2c1451"/></linearGradient>
    <linearGradient id="accent" x1="0" y1="0" x2="1" y2="0"><stop offset="0" stop-color="#a855f7"/><stop offset="1" stop-color="#d946ef"/></linearGradient>
    <filter id="soft" x="-20%" y="-20%" width="140%" height="140%"><feGaussianBlur stdDeviation="6"/></filter>
  </defs>
  <rect x="1" y="1" width="998" height="278" rx="20" fill="url(#bg)" stroke="#5b2a86"/>
  <g opacity="0.2"><circle cx="130" cy="66" r="26" fill="#f5d0fe"/><circle cx="102" cy="90" r="12" fill="#f5d0fe"/><circle cx="158" cy="90" r="12" fill="#f5d0fe"/></g>
  <g opacity="0.15"><circle cx="910" cy="220" r="30" fill="#ddd6fe"/><circle cx="880" cy="248" r="14" fill="#ddd6fe"/><circle cx="940" cy="248" r="14" fill="#ddd6fe"/></g>
  <text x="40" y="44" fill="#f3e8ff" font-family="Segoe UI,Arial,sans-serif" font-size="22" font-weight="700">Purple Activity Core</text>
  <text x="40" y="66" fill="#c4b5fd" font-family="Segoe UI,Arial,sans-serif" font-size="12">Updated 2026-07-24 05:45 UTC</text>

  <g font-family="Segoe UI,Arial,sans-serif" fill="#f8f5ff">
    <text x="60" y="122" font-size="13" fill="#c4b5fd">Total Contributions</text>
    <text x="60" y="160" font-size="42" font-weight="700">0</text>

    <text x="320" y="122" font-size="13" fill="#c4b5fd">Current Streak</text>
    <text x="320" y="160" font-size="42" font-weight="700">0d</text>

    <text x="540" y="122" font-size="13" fill="#c4b5fd">Longest Streak</text>
    <text x="540" y="160" font-size="42" font-weight="700">0d</text>

    <text x="760" y="122" font-size="13" fill="#c4b5fd">Commit Contributions (12M)</text>
    <text x="760" y="160" font-size="42" font-weight="700">0</text>
  </g>

  <rect x="40" y="206" width="920" height="18" rx="9" fill="#2f1c4f"/>
  <rect x="40" y="206" width="20" height="18" rx="9" fill="url(#accent)"/>
  <text x="40" y="248" fill="#a78bfa" font-family="Segoe UI,Arial,sans-serif" font-size="12">Streak progress relative to longest streak</text>
</svg>
